<?xml version="1.0" standalone="no"?><!DOCTYPE svg PUBLIC "-//W3C//DTD SVG 1.1//EN" "http://www.w3.org/Graphics/SVG/1.1/DTD/svg11.dtd"><svg t="1730613092159" class="icon" viewBox="0 0 1024 1024" version="1.1" xmlns="http://www.w3.org/2000/svg" p-id="1537" xmlns:xlink="http://www.w3.org/1999/xlink" width="200" height="200"><path d="M546.315378 66.395022c5.296356 21.105778 8.112356 43.201422 8.112355 65.951289 0 75.872711-31.277511 144.4352-81.635555 193.513245 50.761956-19.825778 106.001067-30.72 163.7888-30.72 121.742222 0 232.197689 48.315733 313.252978 126.805333-39.446756-192.768-202.996622-340.3264-403.518578-355.549867zM102.661689 332.379022C78.506667 387.350756 65.092267 448.108089 65.092267 512c0 122.020978 48.907378 232.618667 128.182044 313.264356-4.630756-25.895822-7.048533-52.559644-7.048533-79.786667 0-142.916267 66.577067-270.279111 170.404978-352.779378-23.034311 6.388622-47.3088 9.807644-72.379734 9.807645-69.905067 0.005689-133.620622-26.550044-181.589333-70.126934z" fill="#24CE9E" p-id="1538"></path><path d="M512 958.907733c246.818133 0 446.907733-200.083911 446.907733-446.902044 0-30.850844-3.1232-60.967822-9.079466-90.055111-81.055289-78.495289-191.510756-126.805333-313.252978-126.805334-57.782044 0-113.026844 10.888533-163.7888 30.72 50.363733-49.072356 81.635556-117.640533 81.635555-193.513244 0-22.749867-2.816-44.839822-8.112355-65.951289a453.639396 453.639396 0 0 0-34.315378-1.297067c-182.926222 0-340.178489 109.903644-409.338311 267.286756 47.9744 43.576889 111.684267 70.132622 181.595022 70.132622 25.070933 0 49.345422-3.419022 72.379734-9.807644-103.827911 82.500267-170.404978 209.863111-170.404978 352.779378 0 27.227022 2.417778 53.890844 7.048533 79.786666 81.083733 82.466133 193.928533 133.626311 318.725689 133.626311z" fill="#56D8B0" p-id="1539"></path><path d="M261.063111 201.5232l15.746845-53.845333 15.746844 53.845333 53.845333 15.746844-53.845333 15.746845-15.746844 53.845333-15.746845-53.845333-53.845333-15.746845z" fill="#A9F6E6" opacity=".6" p-id="1540"></path><path d="M682.012444 772.278044l19.882667-67.987911 19.882667 67.987911 67.987911 19.882667-67.987911 19.882667-19.882667 67.987911-19.882667-67.987911-67.987911-19.882667zM322.349511 334.307556l9.739378-33.297067 9.733689 33.297067 33.297066 9.733688-33.297066 9.739378-9.733689 33.291378-9.739378-33.291378-33.291378-9.739378z" fill="#A9F6E6" p-id="1541"></path><path d="M725.333333 523.7248H500.622222V298.666667c0-6.286222-5.091556-11.377778-11.377778-11.377778-33.405156 0-65.814756 6.542222-96.329955 19.450311-29.468444 12.464356-55.933156 30.304711-78.654578 53.031822-22.721422 22.721422-40.567467 49.186133-53.031822 78.654578C248.32 468.9408 241.777778 501.3504 241.777778 534.755556s6.542222 65.814756 19.450311 96.329955c12.464356 29.468444 30.304711 55.933156 53.031822 78.654578 22.721422 22.721422 49.186133 40.561778 78.654578 53.031822C423.429689 775.68 455.839289 782.222222 489.244444 782.222222c33.371022 0 65.757867-6.530844 96.250312-19.416178 29.445689-12.4416 55.899022-30.253511 78.614755-52.946488 22.715733-22.687289 40.561778-49.112178 53.048889-78.5408 12.925156-30.469689 19.501511-62.839467 19.552711-96.2048 0.005689-3.0208-1.194667-5.916444-3.328-8.055467a11.384604 11.384604 0 0 0-8.049778-3.333689z" fill="#FFFFFF" p-id="1542"></path><path d="M762.771911 392.914489c-12.464356-29.468444-30.304711-55.933156-53.031822-78.654578s-49.186133-40.567467-78.654578-53.031822C600.570311 248.32 568.160711 241.777778 534.755556 241.777778c-6.286222 0-11.377778 5.091556-11.377778 11.377778v236.435911c0 6.286222 5.091556 11.377778 11.377778 11.377777h236.088888c6.263467 0 11.349333-5.063111 11.377778-11.320888v-0.398223c0-33.410844-6.542222-65.820444-19.450311-96.335644z" fill="#FFFFFF" p-id="1543"></path></svg>