<?xml version="1.0" standalone="no"?><!DOCTYPE svg PUBLIC "-//W3C//DTD SVG 1.1//EN" "http://www.w3.org/Graphics/SVG/1.1/DTD/svg11.dtd"><svg t="1730612894356" class="icon" viewBox="0 0 1024 1024" version="1.1" xmlns="http://www.w3.org/2000/svg" p-id="1206" xmlns:xlink="http://www.w3.org/1999/xlink" width="200" height="200"><path d="M546.315378 66.395022c5.296356 21.105778 8.112356 43.201422 8.112355 65.951289 0 75.872711-31.277511 144.4352-81.635555 193.513245 50.761956-19.825778 106.001067-30.72 163.7888-30.72 121.742222 0 232.197689 48.315733 313.252978 126.805333-39.446756-192.768-202.996622-340.3264-403.518578-355.549867zM102.661689 332.379022C78.506667 387.350756 65.092267 448.108089 65.092267 512c0 122.020978 48.907378 232.618667 128.182044 313.264356-4.630756-25.895822-7.048533-52.559644-7.048533-79.786667 0-142.916267 66.577067-270.279111 170.404978-352.779378-23.034311 6.388622-47.3088 9.807644-72.379734 9.807645-69.905067 0.005689-133.620622-26.550044-181.589333-70.126934z" fill="#24CE9E" p-id="1207"></path><path d="M512 958.907733c246.818133 0 446.907733-200.083911 446.907733-446.902044 0-30.850844-3.1232-60.967822-9.079466-90.055111-81.055289-78.495289-191.510756-126.805333-313.252978-126.805334-57.782044 0-113.026844 10.888533-163.7888 30.72 50.363733-49.072356 81.635556-117.640533 81.635555-193.513244 0-22.749867-2.816-44.839822-8.112355-65.951289a453.639396 453.639396 0 0 0-34.315378-1.297067c-182.926222 0-340.178489 109.903644-409.338311 267.286756 47.9744 43.576889 111.684267 70.132622 181.595022 70.132622 25.070933 0 49.345422-3.419022 72.379734-9.807644-103.827911 82.500267-170.404978 209.863111-170.404978 352.779378 0 27.227022 2.417778 53.890844 7.048533 79.786666 81.083733 82.466133 193.928533 133.626311 318.725689 133.626311z" fill="#56D8B0" p-id="1208"></path><path d="M261.063111 201.5232l15.746845-53.845333 15.746844 53.845333 53.845333 15.746844-53.845333 15.746845-15.746844 53.845333-15.746845-53.845333-53.845333-15.746845z" fill="#A9F6E6" opacity=".6" p-id="1209"></path><path d="M682.012444 772.278044l19.882667-67.987911 19.882667 67.987911 67.987911 19.882667-67.987911 19.882667-19.882667 67.987911-19.882667-67.987911-67.987911-19.882667zM322.349511 334.307556l9.739378-33.297067 9.733689 33.297067 33.297066 9.733688-33.297066 9.739378-9.733689 33.291378-9.739378-33.291378-33.291378-9.739378z" fill="#A9F6E6" p-id="1210"></path><path d="M425.705244 525.533867c2.224356 2.224356 5.825422 2.224356 8.044089 0l36.204089-36.204089c2.224356-2.224356 2.224356-5.825422 0-8.044089L459.707733 471.04c-2.224356-2.224356-5.825422-2.224356-8.044089 0l-36.204088 36.204089c-2.224356 2.224356-2.224356 5.825422 0 8.044089l10.245688 10.245689zM688.344178 262.889244H335.655822c-31.294578 0-56.900267 25.605689-56.900266 56.900267v43.093333h466.488888v-43.093333c0-31.294578-25.605689-56.900267-56.900266-56.900267z" fill="#FFFFFF" p-id="1211"></path><path d="M278.755556 704.1536c0 31.328711 25.628444 56.957156 56.957155 56.957156h352.574578c31.328711 0 56.957156-25.628444 56.957155-56.957156V385.644089H278.755556v318.509511z m108.544-200.931556L447.635911 442.88c4.443022-4.443022 11.645156-4.443022 16.088178 0l40.931555 40.931556 36.590934-36.590934c4.858311-4.858311 13.357511-4.232533 18.983822 1.399467l56.046933 56.046933c5.626311 5.626311 6.252089 14.125511 1.399467 18.983822l-36.590933 36.590934 55.608889 55.608889c4.443022 4.443022 4.443022 11.645156 0 16.088177l-60.342045 60.342045c-4.443022 4.443022-11.645156 4.443022-16.088178 0l-55.608889-55.608889-3.407644 3.407644a11.360711 11.360711 0 0 1-5.438578 3.026489L416.995556 661.543822c-8.197689 1.917156-15.553422-5.438578-13.636267-13.636266l18.437689-78.819556a11.360711 11.360711 0 0 1 3.026489-5.438578l3.407644-3.407644-40.931555-40.931556c-4.443022-4.443022-4.443022-11.645156 0-16.088178z" fill="#FFFFFF" p-id="1212"></path></svg>