<?xml version="1.0" standalone="no"?><!DOCTYPE svg PUBLIC "-//W3C//DTD SVG 1.1//EN" "http://www.w3.org/Graphics/SVG/1.1/DTD/svg11.dtd"><svg height="400" node-id="1" sillyvg="true" template-height="400" template-width="600" version="1.1" viewBox="0 0 600 400" width="600" xmlns="http://www.w3.org/2000/svg" xmlns:xlink="http://www.w3.org/1999/xlink"><defs node-id="101"></defs><path d="M 0.00 0.00 L 600.00 0.00 L 600.00 400.00 L 0.00 400.00 Z" fill="#ffffff" fill-rule="evenodd" node-id="104" stroke="none" target-height="400" target-width="600" target-x="0" target-y="0"></path><g node-id="106"><path d="M 125.10 313.10 L 127.80 312.80 L 130.40 312.10 L 132.80 310.90 L 136.90 307.70 L 141.00 302.40 L 142.80 299.00 L 144.10 295.60 L 144.80 292.70 L 144.80 289.50 L 144.40 288.60 L 143.00 287.70 L 140.80 288.20 L 133.00 293.00 L 131.60 293.00 L 131.20 292.60 L 131.10 291.90 L 132.20 289.20 L 133.80 286.90 L 143.10 275.30 L 145.10 271.20 L 145.10 270.00 L 144.70 269.10 L 143.80 268.30 L 142.80 268.00 L 140.00 268.80 L 134.30 272.80 L 133.70 272.90 L 133.20 272.20 L 134.30 270.00 L 143.80 256.40 L 145.50 252.30 L 145.50 251.10 L 145.20 250.20 L 144.50 249.60 L 143.20 249.40 L 141.10 250.70 L 137.20 254.50 L 136.20 254.80 L 135.30 254.40 L 135.10 254.00 L 135.20 251.90 L 135.90 249.90 L 140.70 238.20 L 142.30 232.30 L 142.40 229.90 L 142.20 228.50 L 141.60 227.30 L 140.60 226.30 L 139.50 225.90 L 138.30 226.10 L 136.90 227.10 L 135.10 229.30 L 132.90 232.70 L 128.90 241.00 L 121.90 256.90 L 120.80 258.80 L 119.40 260.10 L 118.00 259.70 L 115.50 257.30 L 106.80 245.70 L 105.00 243.90 L 102.40 242.50 L 101.60 242.60 L 100.80 243.10 L 100.30 244.00 L 100.10 245.20 L 100.30 247.10 L 101.20 249.90 L 102.70 253.50 L 112.20 271.80 L 113.70 276.00 L 113.30 277.50 L 111.70 277.80 L 110.40 277.30 L 101.30 271.80 L 98.90 270.60 L 96.90 270.00 L 95.60 270.00 L 94.50 270.50 L 93.60 271.40 L 93.10 272.60 L 93.10 274.00 L 93.50 275.60 L 94.80 278.00 L 96.70 280.60 L 105.00 289.50 L 106.20 291.10 L 106.20 291.70 L 105.60 292.00 L 104.20 291.90 L 93.90 289.90 L 91.20 290.30 L 90.10 291.50 L 90.00 292.40 L 91.00 295.40 L 92.70 298.00 L 95.40 301.00 L 98.70 303.90 L 105.80 308.40 L 112.80 311.20 L 116.60 312.20 L 120.70 312.80 L 125.10 313.10 Z" fill="#f3f9ff" fill-rule="nonzero" group-id="1" id="Path" node-id="7" stroke="none" target-height="87.20001" target-width="55.5" target-x="90" target-y="225.9"></path><path d="M 118.30 321.20 L 117.50 320.60 L 116.50 315.10 L 116.00 309.70 L 115.90 304.40 L 116.80 294.10 L 119.10 282.70 L 120.80 277.10 L 124.00 268.60 L 125.50 265.40 L 125.90 265.00 L 126.50 265.10 L 126.90 265.50 L 126.80 266.10 L 124.00 272.60 L 122.20 277.60 L 120.60 283.10 L 118.30 294.30 L 117.50 304.40 L 117.50 309.60 L 118.10 314.90 L 119.00 320.30 L 118.90 320.90 L 118.30 321.20 Z" fill="#d0e7fe" fill-rule="nonzero" group-id="1" id="Path" node-id="8" stroke="none" target-height="56.200012" target-width="11" target-x="115.9" target-y="265"></path><path d="M 100.30 288.60 L 100.10 286.70 L 98.90 283.50 L 95.60 279.50 L 89.90 274.50 L 88.40 272.90 L 87.70 271.70 L 87.10 269.20 L 87.90 266.80 L 88.90 265.50 L 98.40 258.00 L 100.80 255.70 L 102.70 253.10 L 103.70 251.20 L 104.30 249.10 L 104.60 246.70 L 104.30 244.40 L 103.70 242.50 L 102.70 240.90 L 100.80 238.90 L 98.40 237.20 L 90.80 233.00 L 88.90 231.40 L 87.90 230.10 L 87.30 228.60 L 87.10 226.90 L 87.30 224.30 L 88.00 222.20 L 89.00 220.40 L 93.90 213.90 L 94.90 211.70 L 95.60 209.30 L 95.80 206.10 L 95.10 201.80 L 94.10 199.00 L 89.60 190.00 L 83.20 180.70 L 79.70 176.30 L 72.40 168.80 L 69.00 166.30 L 66.70 164.90 L 63.10 164.00 L 61.20 164.30 L 59.20 165.30 L 57.20 167.00 L 53.50 171.60 L 51.70 174.70 L 47.20 184.60 L 44.10 194.60 L 43.30 199.10 L 43.00 202.20 L 43.20 204.10 L 44.80 207.40 L 46.60 209.60 L 56.40 217.80 L 58.20 219.80 L 59.20 221.20 L 60.00 224.30 L 59.80 225.80 L 58.20 228.30 L 56.40 229.90 L 46.60 235.30 L 44.80 236.90 L 43.20 239.40 L 43.00 240.90 L 43.30 242.40 L 43.90 244.00 L 47.40 247.80 L 59.20 256.50 L 61.50 258.40 L 63.40 261.00 L 63.60 262.10 L 62.90 264.30 L 60.50 267.10 L 54.00 272.60 L 52.00 274.70 L 50.30 277.20 L 49.00 280.90 L 48.90 285.40 L 50.30 290.90 L 52.00 295.30 L 56.80 304.20 L 59.60 308.20 L 62.60 311.80 L 65.30 314.40 L 67.30 315.90 L 68.90 316.60 L 70.30 316.90 L 73.70 316.00 L 79.80 312.70 L 84.00 309.70 L 91.80 302.80 L 95.20 299.00 L 97.80 295.30 L 99.20 292.80 L 100.00 290.60 L 100.30 288.60 Z" fill="#e7f4fe" fill-rule="nonzero" group-id="1" id="Path" node-id="9" stroke="none" target-height="152.9" target-width="61.6" target-x="43" target-y="164"></path><path d="M 69.40 326.00 L 68.70 325.70 L 68.60 325.10 L 70.90 310.70 L 73.70 286.40 L 74.50 274.90 L 75.10 256.20 L 74.70 243.70 L 74.10 234.40 L 71.90 218.60 L 70.60 212.70 L 68.60 206.10 L 68.60 205.50 L 69.10 205.10 L 69.70 205.10 L 70.10 205.50 L 71.20 208.90 L 73.40 218.30 L 74.50 225.00 L 75.60 234.20 L 76.30 243.70 L 76.60 256.20 L 76.10 275.00 L 74.10 298.00 L 70.10 325.40 L 69.40 326.00 Z" fill="#d0e7fe" fill-rule="nonzero" group-id="1" id="Path" node-id="10" stroke="none" target-height="120.899994" target-width="8" target-x="68.6" target-y="205.1"></path></g><g node-id="107"><path d="M 244.90 59.00 L 243.20 56.70 L 240.80 55.40 L 239.50 55.20 L 229.10 57.10 L 227.50 57.20 L 224.60 56.20 L 218.60 50.40 L 217.50 49.20 L 216.80 47.80 L 216.50 46.20 L 216.60 44.70 L 218.50 34.30 L 218.30 32.90 L 217.00 30.60 L 214.80 28.90 L 201.50 23.50 L 198.80 23.00 L 196.20 23.80 L 195.10 24.60 L 189.10 33.30 L 188.00 34.50 L 185.30 35.80 L 176.90 36.00 L 175.30 35.80 L 173.80 35.30 L 172.50 34.50 L 171.50 33.30 L 165.40 24.60 L 164.40 23.80 L 161.80 23.00 L 159.00 23.50 L 145.80 28.90 L 143.50 30.60 L 142.20 32.90 L 142.10 35.70 L 144.00 46.30 L 143.00 49.20 L 142.00 50.40 L 137.20 55.20 L 136.00 56.20 L 134.60 56.90 L 133.00 57.20 L 131.50 57.10 L 121.10 55.20 L 119.70 55.40 L 117.30 56.70 L 115.70 59.00 L 110.20 72.20 L 109.80 74.90 L 110.60 77.50 L 111.40 78.60 L 120.00 84.60 L 121.20 85.70 L 122.10 87.00 L 122.60 88.40 L 122.70 90.00 L 122.60 98.40 L 122.10 99.90 L 121.30 101.20 L 120.10 102.20 L 111.40 108.30 L 110.60 109.30 L 109.80 111.90 L 110.20 114.70 L 115.70 127.90 L 117.30 130.10 L 119.70 131.40 L 121.10 131.60 L 131.50 129.80 L 133.10 129.70 L 134.60 130.00 L 136.00 130.60 L 137.20 131.70 L 143.00 137.70 L 144.00 140.60 L 143.90 142.20 L 142.00 152.60 L 142.20 153.90 L 143.50 156.30 L 145.80 157.90 L 159.00 163.40 L 160.40 163.80 L 163.10 163.60 L 165.40 162.30 L 171.50 153.60 L 172.50 152.40 L 173.80 151.50 L 175.30 151.00 L 176.90 150.90 L 183.70 150.90 L 185.30 151.00 L 188.00 152.40 L 194.20 161.20 L 195.10 162.30 L 197.50 163.60 L 200.20 163.80 L 201.50 163.40 L 214.80 157.90 L 217.00 156.30 L 218.30 153.90 L 218.50 152.60 L 216.60 142.20 L 216.50 140.60 L 217.50 137.70 L 223.40 131.70 L 224.60 130.60 L 226.00 130.00 L 227.50 129.70 L 229.10 129.80 L 239.50 131.60 L 240.80 131.40 L 243.20 130.10 L 244.90 127.90 L 250.30 114.70 L 250.80 111.90 L 250.00 109.30 L 249.20 108.30 L 240.50 102.20 L 239.30 101.20 L 238.00 98.40 L 237.80 90.00 L 237.90 88.50 L 238.40 87.00 L 239.30 85.70 L 240.50 84.60 L 249.20 78.60 L 250.00 77.50 L 250.80 74.90 L 250.30 72.20 L 244.90 59.00 Z M 191.90 121.40 L 187.90 122.80 L 184.00 123.50 L 180.10 123.80 L 176.10 123.50 L 172.30 122.70 L 168.70 121.40 L 165.20 119.70 L 161.90 117.60 L 159.00 115.00 L 156.30 112.10 L 154.10 108.80 L 152.20 105.00 L 150.90 101.10 L 150.10 97.20 L 149.90 93.20 L 150.20 89.30 L 151.00 85.50 L 152.20 81.80 L 153.90 78.30 L 156.10 75.10 L 158.70 72.10 L 161.60 69.50 L 164.90 67.30 L 168.70 65.40 L 172.60 64.10 L 176.60 63.30 L 180.50 63.10 L 184.40 63.40 L 188.20 64.20 L 191.90 65.40 L 195.40 67.10 L 198.60 69.30 L 201.60 71.80 L 204.20 74.80 L 206.50 78.10 L 208.30 81.80 L 209.70 85.80 L 210.40 89.70 L 210.60 93.60 L 210.40 97.60 L 209.60 101.40 L 208.30 105.00 L 206.60 108.50 L 204.50 111.70 L 201.90 114.70 L 199.00 117.30 L 195.60 119.60 L 191.90 121.40 Z" fill="#f3f9ff" fill-rule="nonzero" group-id="2" id="Shape" node-id="12" stroke="none" target-height="140.8" target-width="141" target-x="109.8" target-y="23"></path></g><g node-id="108"><path d="M 412.50 169.20 L 416.80 162.70 L 420.40 158.00 L 424.60 152.90 L 430.10 147.10 L 438.40 139.40 L 448.50 131.90 L 454.00 128.50 L 460.10 125.40 L 466.30 122.70 L 473.00 120.50 L 480.20 118.80 L 485.60 118.00 L 491.30 117.50 L 497.20 117.50 L 503.50 117.90 L 509.50 118.80 L 515.90 120.20 L 522.70 122.20 L 529.80 124.90 L 536.50 127.90 L 543.60 131.70 L 551.10 136.30 L 559.00 141.70 L 534.00 136.40 L 541.40 143.20 L 516.70 151.90 L 498.10 139.20 L 508.80 151.10 L 513.20 155.20 L 511.20 156.00 L 499.70 158.60 L 481.30 161.20 L 478.20 146.90 L 478.00 153.70 L 478.30 159.50 L 479.40 164.50 L 454.10 166.70 L 450.50 157.40 L 441.70 165.10 L 412.50 169.20 Z" fill="#8ae6b9" fill-rule="nonzero" group-id="3" id="Path" node-id="14" stroke="none" target-height="51.699997" target-width="146.5" target-x="412.5" target-y="117.5"></path><path d="M 414.20 172.30 L 416.40 164.90 L 418.50 159.30 L 421.00 153.20 L 424.50 146.00 L 430.20 136.20 L 437.60 126.10 L 441.90 121.20 L 446.70 116.40 L 451.90 112.00 L 457.60 107.90 L 464.00 104.20 L 468.90 101.80 L 474.20 99.70 L 479.90 98.00 L 486.00 96.50 L 492.00 95.50 L 498.50 95.00 L 505.60 94.90 L 513.10 95.40 L 520.50 96.30 L 528.40 97.80 L 536.90 99.90 L 546.10 102.80 L 520.30 110.10 L 520.00 116.60 L 501.10 130.60 L 487.10 118.40 L 488.90 124.40 L 489.90 126.70 L 492.40 130.20 L 494.90 131.90 L 490.50 135.80 L 477.60 144.40 L 470.30 131.60 L 469.90 136.40 L 470.00 138.50 L 471.10 142.80 L 472.20 144.60 L 453.20 157.70 L 447.00 149.80 L 450.30 159.60 L 414.20 172.30 Z" fill="#1eaf69" fill-rule="nonzero" group-id="3" id="Path" node-id="15" stroke="none" target-height="77.4" target-width="131.89996" target-x="414.2" target-y="94.9"></path><path d="M 471.80 143.90 L 467.70 132.90 L 462.00 121.80 L 458.20 115.80 L 453.50 109.40 L 450.10 105.30 L 441.90 97.40 L 437.30 93.90 L 432.20 90.60 L 426.70 87.70 L 417.80 84.20 L 407.70 81.90 L 402.50 81.30 L 396.90 81.10 L 390.90 81.30 L 384.50 82.00 L 378.30 83.00 L 371.60 84.60 L 364.40 86.80 L 356.70 89.60 L 378.90 94.80 L 379.50 100.40 L 396.10 111.60 L 407.50 100.70 L 406.30 105.80 L 405.50 107.80 L 404.40 109.80 L 403.00 111.40 L 401.40 112.50 L 405.30 115.60 L 416.70 122.40 L 422.40 111.30 L 422.90 117.20 L 422.10 120.90 L 421.30 122.50 L 438.00 132.90 L 442.90 125.90 L 440.50 134.40 L 471.80 143.90 Z" fill="#8ae6b9" fill-rule="nonzero" group-id="3" id="Path" node-id="16" stroke="none" target-height="62.799995" target-width="115.099976" target-x="356.7" target-y="81.1"></path><path d="M 414.20 172.30 L 417.90 155.80 L 423.10 138.90 L 426.60 129.40 L 431.00 119.40 L 434.20 112.80 L 441.90 99.90 L 446.30 93.70 L 451.00 88.00 L 456.20 82.70 L 460.30 79.10 L 464.70 75.80 L 469.30 73.00 L 474.20 70.50 L 479.20 68.50 L 484.50 67.00 L 490.20 66.00 L 496.30 65.50 L 505.90 66.10 L 516.80 68.40 L 522.80 70.40 L 503.00 86.80 L 486.60 82.90 L 503.10 91.00 L 492.60 104.40 L 470.10 101.00 L 478.50 106.80 L 469.10 124.90 L 457.40 118.20 L 458.30 123.00 L 459.00 124.90 L 461.10 128.80 L 462.70 130.30 L 447.90 147.80 L 439.80 141.90 L 445.50 150.50 L 414.20 172.30 Z" fill="#2ccd7f" fill-rule="nonzero" group-id="3" id="Path" node-id="17" stroke="none" target-height="106.8" target-width="108.599976" target-x="414.2" target-y="65.5"></path></g><g node-id="109"><path d="M 183.40 123.20 L 464.00 123.20 L 464.00 276.20 L 183.40 276.20 Z" fill="#f3f9ff" fill-rule="nonzero" group-id="4" id="Rectangle" node-id="19" stroke="none" target-height="153.00002" target-width="280.6" target-x="183.4" target-y="123.2"></path><path d="M 476.80 288.90 L 476.80 123.20 L 476.00 118.80 L 475.10 116.80 L 472.30 113.50 L 468.50 111.30 L 464.00 110.50 L 183.40 110.50 L 181.00 110.70 L 176.90 112.20 L 175.10 113.50 L 172.40 116.80 L 170.80 120.90 L 170.60 123.20 L 170.60 288.90 L 476.80 288.90 Z M 183.40 123.20 L 464.00 123.20 L 464.00 276.20 L 183.40 276.20 L 183.40 123.20 Z" fill="#224380" fill-rule="nonzero" group-id="4" id="Shape" node-id="20" stroke="none" target-height="178.4" target-width="306.19998" target-x="170.6" target-y="110.5"></path><path d="M 170.60 288.90 L 170.80 316.70 L 171.40 318.80 L 173.60 322.60 L 176.90 325.40 L 178.90 326.30 L 183.40 327.10 L 285.40 327.10 L 285.20 332.40 L 284.50 337.40 L 283.40 342.00 L 281.90 346.50 L 280.10 350.60 L 278.00 354.20 L 275.40 357.50 L 272.70 360.20 L 269.80 362.40 L 267.50 363.70 L 262.50 365.20 L 257.60 365.60 L 255.50 366.20 L 251.70 368.40 L 248.90 371.70 L 248.00 373.60 L 247.20 378.10 L 400.20 378.10 L 399.50 373.60 L 398.50 371.70 L 395.70 368.40 L 392.00 366.20 L 389.80 365.60 L 384.90 365.20 L 379.90 363.70 L 377.60 362.40 L 374.70 360.20 L 372.00 357.50 L 369.50 354.20 L 367.30 350.60 L 365.50 346.50 L 364.00 342.00 L 362.90 337.40 L 362.20 332.40 L 362.00 327.10 L 464.00 327.10 L 468.50 326.30 L 470.50 325.40 L 473.80 322.60 L 476.00 318.80 L 476.60 316.70 L 476.80 288.90 L 170.60 288.90 Z" fill="#dae7ff" fill-rule="nonzero" group-id="4" id="Path" node-id="21" stroke="none" target-height="89.20001" target-width="306.19998" target-x="170.6" target-y="288.9"></path><path d="M 259.90 365.40 L 387.50 365.40 L 382.40 364.60 L 377.60 362.40 L 374.70 360.20 L 372.00 357.50 L 369.50 354.20 L 367.30 350.60 L 365.50 346.50 L 364.00 342.00 L 362.90 337.40 L 362.20 332.40 L 362.00 327.10 L 285.40 327.10 L 285.20 332.40 L 284.50 337.40 L 283.40 342.00 L 281.90 346.50 L 280.10 350.60 L 278.00 354.20 L 275.40 357.50 L 272.70 360.20 L 269.80 362.40 L 265.00 364.60 L 259.90 365.40 Z" fill="#c3d3f3" fill-rule="nonzero" group-id="4" id="Path" node-id="22" stroke="none" target-height="38.299988" target-width="127.600006" target-x="259.9" target-y="327.1"></path><path d="M 330.10 308.00 L 329.80 309.70 L 329.20 311.20 L 328.20 312.50 L 326.90 313.50 L 325.40 314.10 L 323.70 314.40 L 322.00 314.10 L 320.50 313.50 L 319.20 312.50 L 318.20 311.20 L 317.60 309.70 L 317.30 308.00 L 317.60 306.30 L 318.20 304.80 L 319.20 303.50 L 320.50 302.50 L 322.00 301.90 L 323.70 301.60 L 325.40 301.90 L 326.90 302.50 L 328.20 303.50 L 329.20 304.80 L 329.80 306.30 L 330.10 308.00 Z" fill="#224380" fill-rule="nonzero" group-id="4" id="Oval" node-id="23" stroke="none" target-height="12.799988" target-width="12.800018" target-x="317.3" target-y="301.6"></path><path d="M 326.90 116.90 L 326.60 118.10 L 326.00 119.10 L 325.00 119.80 L 323.70 120.10 L 322.50 119.80 L 321.40 119.10 L 320.80 118.10 L 320.50 116.90 L 320.80 115.60 L 321.40 114.60 L 322.50 113.90 L 323.70 113.70 L 325.00 113.90 L 326.00 114.60 L 326.60 115.60 L 326.90 116.90 Z" fill="#f3f9ff" fill-rule="nonzero" group-id="4" id="Oval" node-id="24" stroke="none" target-height="6.4000015" target-width="6.399994" target-x="320.5" target-y="113.7"></path><path d="M 421.20 225.60 L 421.20 223.90 L 430.00 223.90 L 430.00 225.10 L 430.00 225.60 L 421.20 225.60 Z M 412.40 225.60 L 403.60 225.60 L 403.60 223.90 L 412.40 223.90 L 412.40 225.60 Z M 394.80 225.60 L 386.00 225.60 L 386.00 223.90 L 394.80 223.90 L 394.80 225.60 Z M 378.10 221.10 L 377.40 217.80 L 377.40 212.00 L 379.10 212.00 L 379.10 217.80 L 379.60 220.30 L 378.10 221.10 Z M 437.50 220.10 L 435.80 219.60 L 436.10 217.80 L 436.10 211.10 L 437.80 211.10 L 437.80 217.80 L 437.50 220.10 Z M 379.10 203.20 L 377.40 203.20 L 377.40 194.50 L 379.10 194.50 L 379.10 203.20 Z M 437.80 202.30 L 436.10 202.30 L 436.10 193.50 L 437.80 193.50 L 437.80 202.30 Z M 379.10 185.70 L 377.40 185.70 L 377.40 176.90 L 379.10 176.90 L 379.10 185.70 Z M 437.80 184.80 L 436.10 184.80 L 436.10 176.00 L 437.80 176.00 L 437.80 184.80 Z M 379.10 168.10 L 377.40 168.10 L 377.40 161.40 L 377.70 159.10 L 379.40 159.60 L 379.10 161.40 L 379.10 168.10 Z M 437.80 167.20 L 436.10 167.20 L 436.10 161.40 L 435.50 158.90 L 437.10 158.10 L 437.60 159.70 L 437.80 167.20 Z M 429.10 155.30 L 420.30 155.30 L 420.30 153.60 L 429.10 153.60 L 429.10 155.30 Z M 411.50 155.30 L 402.70 155.30 L 402.70 153.60 L 411.50 153.60 L 411.50 155.30 Z M 393.90 155.30 L 385.20 155.30 L 385.10 153.80 L 385.20 153.60 L 393.90 153.60 L 393.90 155.30 Z" fill="#b8ddfe" fill-rule="nonzero" group-id="4" id="Shape" node-id="25" stroke="none" target-height="72" target-width="60.399994" target-x="377.4" target-y="153.6"></path><g node-id="113"><path d="M 343.00 226.80 L 218.70 226.80 L 216.50 226.50 L 214.50 225.70 L 212.90 224.40 L 211.60 222.80 L 210.80 220.80 L 210.50 218.70 L 210.50 164.80 L 210.80 162.60 L 211.60 160.60 L 212.90 159.00 L 214.50 157.70 L 216.50 156.90 L 218.70 156.60 L 343.00 156.60 L 345.20 156.90 L 347.10 157.70 L 348.80 159.00 L 350.10 160.60 L 350.90 162.60 L 351.20 164.80 L 351.20 218.70 L 350.90 220.80 L 350.10 222.80 L 348.80 224.40 L 347.10 225.70 L 345.20 226.50 L 343.00 226.80 Z" fill="#d0e7fe" fill-rule="nonzero" group-id="4,8" id="Path" node-id="27" stroke="none" target-height="70.2" target-width="140.70001" target-x="210.5" target-y="156.6"></path><path d="M 343.00 222.50 L 218.70 222.50 L 216.50 222.20 L 214.50 221.40 L 212.90 220.10 L 211.60 218.40 L 210.80 216.50 L 210.50 214.30 L 210.50 160.40 L 210.80 158.20 L 211.60 156.30 L 212.90 154.60 L 214.50 153.40 L 216.50 152.50 L 218.70 152.20 L 343.00 152.20 L 345.20 152.50 L 347.10 153.40 L 348.80 154.60 L 350.10 156.30 L 350.90 158.20 L 351.20 160.40 L 351.20 214.30 L 350.90 216.50 L 350.10 218.40 L 348.80 220.10 L 347.10 221.40 L 345.20 222.20 L 343.00 222.50 Z" fill="#ffffff" fill-rule="nonzero" group-id="4,8" id="Path" node-id="28" stroke="none" target-height="70.3" target-width="140.70001" target-x="210.5" target-y="152.2"></path><g node-id="117"><path d="M 275.00 193.20 L 275.00 184.40 L 339.40 184.40 L 339.40 193.20 Z" fill="#7266d5" fill-rule="nonzero" group-id="4,8,12" id="Rectangle" node-id="29" stroke="none" target-height="8.800003" target-width="64.399994" target-x="275" target-y="184.4"></path></g><g node-id="118"><path d="M 304.30 193.20 L 304.30 184.40 L 339.40 184.40 L 339.40 193.20 Z" fill="#9e95e3" fill-rule="nonzero" group-id="4,8,13" id="Rectangle" node-id="30" stroke="none" target-height="8.800003" target-width="35.100006" target-x="304.3" target-y="184.4"></path></g><g node-id="119"><path d="M 275.00 210.80 L 275.00 202.00 L 339.40 202.00 L 339.40 210.80 Z" fill="#7266d5" fill-rule="nonzero" group-id="4,8,14" id="Rectangle" node-id="31" stroke="none" target-height="8.800003" target-width="64.399994" target-x="275" target-y="202"></path></g><g node-id="120"><path d="M 327.70 210.80 L 327.70 202.00 L 339.40 202.00 L 339.40 210.80 Z" fill="#9e95e3" fill-rule="nonzero" group-id="4,8,15" id="Rectangle" node-id="32" stroke="none" target-height="8.800003" target-width="11.699982" target-x="327.7" target-y="202"></path></g><path d="M 241.30 206.40 L 237.80 206.10 L 234.60 205.20 L 231.60 203.80 L 229.00 201.90 L 226.70 199.60 L 224.80 197.00 L 223.40 194.00 L 222.50 190.80 L 222.20 187.40 L 222.50 183.90 L 223.40 180.70 L 224.80 177.80 L 226.70 175.10 L 229.00 172.80 L 231.60 170.90 L 234.60 169.50 L 237.80 168.70 L 241.30 168.30 L 241.30 177.10 L 237.70 177.80 L 234.60 179.50 L 232.40 182.20 L 231.20 185.50 L 231.00 187.40 L 231.60 190.90 L 232.40 192.50 L 234.60 195.20 L 237.70 197.00 L 239.40 197.40 L 241.30 197.60 L 244.80 197.00 L 247.90 195.20 L 250.10 192.50 L 251.30 189.20 L 251.50 187.40 L 260.30 187.40 L 260.00 190.80 L 259.10 194.00 L 257.70 197.00 L 255.80 199.60 L 253.50 201.90 L 250.90 203.80 L 247.90 205.20 L 244.70 206.10 L 241.30 206.40 Z" fill="#ffe994" fill-rule="nonzero" group-id="4,8" id="Path" node-id="33" stroke="none" target-height="38.09999" target-width="38.09999" target-x="222.2" target-y="168.3"></path><path d="M 260.30 187.40 L 251.50 187.40 L 250.90 183.80 L 250.10 182.20 L 247.90 179.50 L 244.80 177.80 L 241.30 177.10 L 241.30 168.30 L 244.70 168.70 L 247.90 169.50 L 250.90 170.90 L 253.50 172.80 L 255.80 175.10 L 257.70 177.80 L 259.10 180.70 L 260.00 183.90 L 260.30 187.40 Z" fill="#ffcb01" fill-rule="nonzero" group-id="4,8" id="Path" node-id="34" stroke="none" target-height="19.09999" target-width="18.999985" target-x="241.3" target-y="168.3"></path></g></g><g node-id="110"><path d="M 109.00 320.90 L 98.60 318.50 L 100.10 310.50 L 110.70 312.40 Z" fill="#f1b282" fill-rule="nonzero" group-id="5" id="Path" node-id="36" stroke="none" target-height="10.399994" target-width="12.099998" target-x="98.6" target-y="310.5"></path><path d="M 104.50 311.30 L 104.00 310.10 L 103.20 309.60 L 100.30 308.40 L 97.20 308.00 L 96.10 309.00 L 95.20 311.20 L 94.20 316.10 L 92.60 319.70 L 92.30 321.40 L 92.20 325.20 L 92.50 327.20 L 93.70 330.00 L 94.60 330.50 L 95.40 330.40 L 96.60 329.50 L 99.10 323.90 L 100.00 323.00 L 103.50 321.20 L 104.70 319.90 L 104.60 319.10 L 101.80 315.00 L 101.70 314.10 L 102.50 312.70 L 104.50 311.30 Z" fill="#0b224e" fill-rule="nonzero" group-id="5" id="Path" node-id="37" stroke="none" target-height="22.5" target-width="12.5" target-x="92.2" target-y="308"></path><path d="M 170.20 361.40 L 168.40 371.90 L 160.20 370.80 L 161.60 360.10 Z" fill="#f1b282" fill-rule="nonzero" group-id="5" id="Path" node-id="38" stroke="none" target-height="11.799988" target-width="10" target-x="160.2" target-y="360.1"></path><path d="M 154.70 252.90 L 140.60 244.00 L 142.30 240.60 L 142.80 237.70 L 142.70 232.90 L 142.10 229.70 L 144.70 228.70 L 145.20 228.20 L 144.00 224.60 L 144.00 222.50 L 144.50 222.10 L 145.10 222.30 L 145.90 223.40 L 152.00 235.00 L 152.50 235.20 L 154.70 234.50 L 154.90 235.40 L 155.90 236.70 L 158.50 239.40 L 158.70 241.90 L 158.30 244.10 L 154.70 252.90 Z" fill="#f1b282" fill-rule="nonzero" group-id="5" id="Path" node-id="39" stroke="none" target-height="30.799988" target-width="18.09999" target-x="140.6" target-y="222.1"></path><path d="M 159.60 220.90 L 157.70 224.00 L 154.70 227.80 L 154.70 234.50 L 152.50 235.20 L 151.20 233.90 L 147.70 226.70 L 145.10 222.30 L 144.50 222.10 L 144.00 222.50 L 143.80 223.40 L 145.20 228.20 L 144.70 228.70 L 142.10 229.70 L 140.80 224.90 L 140.70 222.50 L 141.80 218.40 L 143.90 215.30 L 145.80 213.40 L 149.10 211.20 L 154.70 214.10 L 159.70 217.50 L 160.30 218.30 L 160.20 219.30 L 159.60 220.90 Z" fill="#f1b282" fill-rule="nonzero" group-id="5" id="Path" node-id="40" stroke="none" target-height="24" target-width="19.600006" target-x="140.7" target-y="211.2"></path><path d="M 170.70 283.50 L 175.00 293.60 L 178.40 303.10 L 181.10 313.00 L 181.90 318.90 L 181.90 321.20 L 180.80 328.20 L 176.60 346.80 L 172.20 361.80 L 170.70 364.40 L 168.30 364.50 L 163.20 364.00 L 160.50 363.10 L 159.90 362.60 L 160.10 359.10 L 164.30 333.50 L 164.70 325.40 L 164.20 321.80 L 162.90 317.20 L 159.00 307.60 L 154.50 298.50 L 149.10 288.90 L 170.70 283.50 Z" fill="#0b224e" fill-rule="nonzero" group-id="5" id="Path" node-id="41" stroke="none" target-height="81" target-width="32.799988" target-x="149.1" target-y="283.5"></path><path d="M 155.10 299.70 L 161.30 312.80 L 164.10 321.30 L 164.70 324.70 L 166.70 317.60 L 167.50 308.80 L 166.70 298.90 L 166.10 294.90 L 163.80 286.40 L 155.10 299.70 Z" fill="#03193f" fill-rule="nonzero" group-id="5" id="Path" node-id="42" stroke="none" target-height="38.30002" target-width="12.399994" target-x="155.1" target-y="286.4"></path><path d="M 140.60 283.50 L 135.00 314.10 L 120.80 311.60 L 114.40 310.80 L 110.70 310.90 L 109.70 311.60 L 107.70 314.60 L 105.90 319.70 L 105.90 321.00 L 106.20 321.40 L 117.40 324.50 L 131.60 327.50 L 140.00 328.20 L 142.80 327.80 L 144.90 327.00 L 147.10 325.50 L 149.50 323.20 L 153.60 317.60 L 158.50 308.10 L 161.10 301.60 L 163.30 294.80 L 165.20 287.80 L 140.60 283.50 Z" fill="#102b5e" fill-rule="nonzero" group-id="5" id="Path" node-id="43" stroke="none" target-height="44.700012" target-width="59.299995" target-x="105.9" target-y="283.5"></path><path d="M 191.50 205.40 L 190.60 196.30 L 191.20 193.60 L 193.00 191.50 L 194.10 191.00 L 195.00 190.90 L 197.00 191.90 L 198.70 193.70 L 199.10 195.00 L 199.00 198.20 L 197.80 202.90 L 195.90 206.80 L 195.00 207.60 L 194.10 207.80 L 192.50 206.80 L 191.50 205.40 Z" fill="#f1b282" fill-rule="nonzero" group-id="5" id="Path" node-id="44" stroke="none" target-height="16.90001" target-width="8.5" target-x="190.6" target-y="190.9"></path><path d="M 154.70 234.50 L 152.50 235.20 L 152.00 235.00 L 145.90 223.40 L 145.10 222.30 L 144.50 222.10 L 144.00 222.50 L 143.80 223.40 L 145.20 228.20 L 144.70 228.70 L 142.10 229.70 L 141.20 229.50 L 139.90 228.60 L 137.10 225.80 L 133.80 221.60 L 145.90 210.30 L 149.10 211.20 L 151.10 212.20 L 151.90 212.80 L 152.30 213.60 L 152.10 214.90 L 150.00 221.00 L 150.00 222.50 L 150.60 223.80 L 151.60 224.60 L 152.70 224.70 L 153.80 224.50 L 159.60 220.90 L 160.30 221.20 L 161.00 222.40 L 162.50 228.70 L 162.10 230.00 L 160.00 231.90 L 154.70 234.50 Z" fill="#0b224e" fill-rule="nonzero" group-id="5" id="Path" node-id="45" stroke="none" target-height="24.899994" target-width="28.699997" target-x="133.8" target-y="210.3"></path><g node-id="114"><path d="M 151.60 205.30 L 151.70 206.50 L 150.20 209.60 L 146.20 214.60 L 143.50 217.50 L 140.70 220.10 L 135.60 224.10 L 133.80 225.20 L 131.80 225.70 L 131.20 225.10 L 131.20 224.30 L 132.80 221.20 L 136.70 216.20 L 139.40 213.30 L 142.30 210.70 L 147.30 206.70 L 150.40 205.20 L 151.60 205.30 Z" fill="#1eaf69" fill-rule="nonzero" group-id="5,9" id="Oval" node-id="46" stroke="none" target-height="20.5" target-width="20.5" target-x="131.2" target-y="205.2"></path></g><path d="M 133.80 221.60 L 131.40 217.60 L 131.40 215.40 L 135.40 211.80 L 135.70 209.10 L 136.10 208.20 L 137.10 207.50 L 139.70 207.40 L 143.10 208.40 L 147.20 210.30 L 133.80 221.60 Z" fill="#2ccd7f" fill-rule="nonzero" group-id="5" id="Path" node-id="47" stroke="none" target-height="14.200012" target-width="15.800003" target-x="131.4" target-y="207.4"></path><path d="M 110.00 201.30 L 111.30 199.60 L 112.50 198.70 L 114.80 198.10 L 116.00 198.80 L 117.20 202.30 L 120.10 214.50 L 121.80 219.50 L 126.10 227.20 L 128.50 230.40 L 131.20 233.30 L 134.40 236.00 L 136.80 237.50 L 146.40 241.10 L 149.10 242.50 L 153.70 245.90 L 154.30 246.00 L 155.00 244.50 L 155.70 238.10 L 156.40 236.20 L 165.00 234.40 L 168.30 233.40 L 173.60 230.70 L 177.10 227.50 L 181.20 220.60 L 188.00 206.20 L 189.70 203.70 L 190.20 203.50 L 191.50 203.70 L 193.00 204.30 L 195.50 206.20 L 196.50 207.90 L 190.00 222.70 L 185.10 232.40 L 172.70 246.90 L 169.00 252.20 L 167.80 254.70 L 167.50 256.50 L 168.70 262.20 L 174.50 279.50 L 174.90 281.40 L 174.70 282.80 L 174.10 284.20 L 173.00 285.50 L 169.90 287.70 L 164.20 289.60 L 153.20 291.00 L 147.00 291.00 L 144.20 290.60 L 142.20 289.80 L 141.00 289.00 L 140.30 287.90 L 139.90 286.50 L 139.50 283.30 L 139.00 270.30 L 138.50 265.90 L 137.70 262.20 L 137.00 260.40 L 134.20 256.00 L 122.00 241.20 L 120.20 238.50 L 117.90 233.90 L 113.80 218.80 L 110.00 201.30 Z" fill="#1b90fb" fill-rule="nonzero" group-id="5" id="Path" node-id="48" stroke="none" target-height="92.899994" target-width="86.5" target-x="110" target-y="198.1"></path><path d="M 144.50 278.80 L 144.30 280.80 L 143.10 284.00 L 140.10 287.50 L 139.50 283.30 L 139.00 270.30 L 138.50 265.90 L 137.70 262.20 L 136.40 259.20 L 140.60 266.30 L 142.10 269.40 L 144.30 275.90 L 144.50 278.80 Z" fill="#1277d7" fill-rule="nonzero" group-id="5" id="Path" node-id="49" stroke="none" target-height="28.299988" target-width="8.100006" target-x="136.4" target-y="259.2"></path><path d="M 160.80 366.30 L 159.70 366.90 L 159.20 367.70 L 158.20 370.60 L 157.90 373.70 L 159.00 374.80 L 161.10 375.60 L 166.10 376.40 L 169.80 377.80 L 171.50 378.10 L 175.30 377.90 L 177.30 377.60 L 180.00 376.20 L 180.50 375.40 L 180.40 374.50 L 179.40 373.40 L 173.70 371.10 L 172.80 370.20 L 170.80 366.90 L 169.40 365.70 L 168.70 365.90 L 164.70 368.80 L 163.80 369.00 L 162.40 368.20 L 160.80 366.30 Z" fill="#0b224e" fill-rule="nonzero" group-id="5" id="Path" node-id="50" stroke="none" target-height="12.399994" target-width="22.600006" target-x="157.9" target-y="365.7"></path><g node-id="115"><path d="M 111.50 178.80 L 123.00 180.50 L 120.70 195.50 L 109.30 193.80 L 107.90 193.30 L 106.90 192.40 L 106.30 191.10 L 106.30 189.70 L 107.40 181.80 L 107.90 180.50 L 108.90 179.50 L 110.10 178.90 L 111.50 178.80 Z" fill="#1b90fb" fill-rule="nonzero" group-id="5,10" id="Path" node-id="52" stroke="none" target-height="16.699997" target-width="16.699997" target-x="106.3" target-y="178.8"></path><g node-id="121"><path d="M 216.90 194.60 L 214.60 209.50 L 120.70 195.50 L 123.00 180.50 Z" fill="#ffd125" fill-rule="nonzero" group-id="5,10,16" id="Rectangle" node-id="53" stroke="none" target-height="29" target-width="96.2" target-x="120.7" target-y="180.5"></path></g><g node-id="122"><path d="M 216.10 199.50 L 215.40 204.50 L 121.50 190.50 L 122.20 185.50 Z" fill="#ffd94a" fill-rule="nonzero" group-id="5,10,17" id="Rectangle" node-id="54" stroke="none" target-height="19" target-width="94.600006" target-x="121.5" target-y="185.5"></path></g><g node-id="123"><path d="M 215.40 204.50 L 214.60 209.50 L 120.70 195.50 L 121.50 190.50 Z" fill="#ffe270" fill-rule="nonzero" group-id="5,10,18" id="Rectangle" node-id="55" stroke="none" target-height="19" target-width="94.7" target-x="120.7" target-y="190.5"></path></g><path d="M 216.90 194.60 L 215.90 194.60 L 214.30 195.70 L 214.00 196.70 L 214.00 197.70 L 215.20 199.20 L 235.70 205.00 L 216.90 194.60 Z" fill="#ffe994" fill-rule="nonzero" group-id="5,10" id="Path" node-id="56" stroke="none" target-height="10.399994" target-width="21.699997" target-x="214" target-y="194.6"></path><path d="M 235.70 205.00 L 216.10 199.50 L 214.20 200.00 L 213.20 201.70 L 213.70 203.50 L 215.40 204.50 L 235.70 205.00 Z" fill="#fef0b9" fill-rule="nonzero" group-id="5,10" id="Path" node-id="57" stroke="none" target-height="5.5" target-width="22.5" target-x="213.2" target-y="199.5"></path><path d="M 235.70 205.00 L 214.40 204.60 L 212.80 205.70 L 212.50 206.70 L 212.50 207.70 L 213.70 209.20 L 214.60 209.50 L 235.70 205.00 Z" fill="#fff9de" fill-rule="nonzero" group-id="5,10" id="Path" node-id="58" stroke="none" target-height="4.899994" target-width="23.199997" target-x="212.5" target-y="204.6"></path><path d="M 227.80 206.70 L 235.70 205.00 L 228.70 201.10 Z" fill="#224380" fill-rule="nonzero" group-id="5,10" id="Path" node-id="59" stroke="none" target-height="5.599991" target-width="7.899994" target-x="227.8" target-y="201.1"></path><g node-id="124"><path d="M 123.20 195.90 L 118.20 195.10 L 120.50 180.10 L 125.50 180.90 Z" fill="#224380" fill-rule="nonzero" group-id="5,10,19" id="Rectangle" node-id="60" stroke="none" target-height="15.799988" target-width="7.300003" target-x="118.2" target-y="180.1"></path></g></g><path d="M 116.10 201.60 L 114.60 193.40 L 115.40 189.00 L 115.20 186.90 L 114.50 185.70 L 112.70 184.10 L 111.60 183.70 L 110.50 183.80 L 109.40 184.30 L 108.60 185.10 L 107.80 186.60 L 107.20 188.90 L 107.10 192.80 L 107.60 193.80 L 109.90 195.70 L 111.70 203.20 L 116.10 201.60 Z" fill="#f1b282" fill-rule="nonzero" group-id="5" id="Path" node-id="61" stroke="none" target-height="19.5" target-width="9" target-x="107.1" target-y="183.7"></path></g><g node-id="111"><path d="M 486.20 215.60 L 443.60 215.60 L 441.70 215.80 L 440.00 216.50 L 438.60 217.60 L 437.50 219.10 L 436.80 220.80 L 436.50 222.70 L 436.50 275.80 L 436.80 277.70 L 437.50 279.40 L 438.60 280.90 L 440.00 282.00 L 441.70 282.70 L 443.60 282.90 L 486.20 282.90 L 488.10 282.70 L 489.80 282.00 L 491.20 280.90 L 492.30 279.40 L 493.10 277.70 L 493.30 275.80 L 493.30 222.70 L 493.10 220.80 L 492.30 219.10 L 491.20 217.60 L 489.80 216.50 L 488.10 215.80 L 486.20 215.60 Z" fill="#1277d7" fill-rule="nonzero" group-id="6" id="Path" node-id="63" stroke="none" target-height="67.29999" target-width="56.799988" target-x="436.5" target-y="215.6"></path><path d="M 486.20 212.60 L 443.60 212.60 L 441.70 212.90 L 440.00 213.60 L 438.60 214.70 L 437.50 216.10 L 436.80 217.80 L 436.50 219.70 L 436.50 272.90 L 436.80 274.80 L 437.50 276.50 L 438.60 277.90 L 440.00 279.00 L 441.70 279.70 L 443.60 280.00 L 486.20 280.00 L 488.10 279.70 L 489.80 279.00 L 491.20 277.90 L 492.30 276.50 L 493.10 274.80 L 493.30 272.90 L 493.30 219.70 L 493.10 217.80 L 492.30 216.10 L 491.20 214.70 L 489.80 213.60 L 488.10 212.90 L 486.20 212.60 Z" fill="#1b90fb" fill-rule="nonzero" group-id="6" id="Path" node-id="64" stroke="none" target-height="67.399994" target-width="56.799988" target-x="436.5" target-y="212.6"></path><path d="M 464.90 255.20 L 461.70 254.90 L 458.70 254.00 L 456.00 252.70 L 453.50 251.00 L 451.40 248.90 L 449.60 246.40 L 448.30 243.60 L 447.50 240.70 L 447.20 237.40 L 447.50 234.20 L 448.30 231.20 L 449.60 228.50 L 451.40 226.00 L 453.50 223.90 L 456.00 222.10 L 458.70 220.80 L 461.70 220.00 L 464.90 219.70 L 468.10 220.00 L 471.10 220.80 L 473.90 222.10 L 476.40 223.90 L 478.50 226.00 L 480.20 228.50 L 481.60 231.20 L 482.40 234.20 L 482.70 237.40 L 482.40 240.70 L 481.60 243.60 L 480.20 246.40 L 478.50 248.90 L 476.40 251.00 L 473.90 252.70 L 471.10 254.00 L 468.10 254.90 L 464.90 255.20 Z M 464.90 223.20 L 462.30 223.50 L 460.00 224.10 L 457.80 225.20 L 455.80 226.60 L 454.10 228.30 L 452.70 230.30 L 451.60 232.50 L 451.00 234.80 L 450.70 237.40 L 451.00 240.00 L 451.60 242.40 L 452.70 244.60 L 454.10 246.60 L 455.80 248.30 L 457.80 249.70 L 460.00 250.70 L 462.30 251.40 L 464.90 251.60 L 467.50 251.40 L 469.90 250.70 L 472.10 249.70 L 474.10 248.30 L 475.80 246.60 L 477.20 244.60 L 478.20 242.40 L 478.90 240.00 L 479.10 237.40 L 478.90 234.80 L 478.20 232.50 L 477.20 230.30 L 475.80 228.30 L 474.10 226.60 L 472.10 225.20 L 469.90 224.10 L 467.50 223.50 L 464.90 223.20 Z" fill="#85c3fe" fill-rule="nonzero" group-id="6" id="Shape" node-id="65" stroke="none" target-height="35.5" target-width="35.5" target-x="447.2" target-y="219.7"></path><path d="M 464.90 255.20 L 461.70 254.90 L 458.70 254.00 L 456.00 252.70 L 453.50 251.00 L 451.40 248.90 L 449.60 246.40 L 448.30 243.60 L 447.50 240.70 L 447.20 237.40 L 447.50 234.20 L 448.30 231.20 L 449.60 228.50 L 451.40 226.00 L 453.50 223.90 L 456.00 222.10 L 458.70 220.80 L 461.70 220.00 L 465.60 219.80 L 466.50 220.80 L 466.70 221.50 L 466.20 222.70 L 465.60 223.10 L 462.30 223.50 L 460.00 224.10 L 457.80 225.20 L 455.80 226.60 L 454.10 228.30 L 452.70 230.30 L 451.60 232.50 L 451.00 234.80 L 450.70 237.40 L 451.00 240.00 L 451.60 242.40 L 452.70 244.60 L 454.10 246.60 L 455.80 248.30 L 457.80 249.70 L 460.00 250.70 L 462.30 251.40 L 464.90 251.60 L 467.50 251.40 L 469.90 250.70 L 472.10 249.70 L 474.10 248.30 L 475.80 246.60 L 477.20 244.60 L 478.20 242.40 L 478.90 240.00 L 479.30 236.70 L 479.60 236.20 L 480.90 235.70 L 481.60 235.80 L 482.50 236.70 L 482.70 237.40 L 482.40 240.70 L 481.60 243.60 L 480.20 246.40 L 478.50 248.90 L 476.40 251.00 L 473.90 252.70 L 471.10 254.00 L 468.10 254.90 L 464.90 255.20 Z" fill="#ffffff" fill-rule="nonzero" group-id="6" id="Path" node-id="66" stroke="none" target-height="35.399994" target-width="35.5" target-x="447.2" target-y="219.8"></path><path d="M 484.40 237.40 L 484.20 238.80 L 483.40 239.90 L 482.30 240.70 L 480.90 241.00 L 479.50 240.70 L 478.40 239.90 L 477.60 238.80 L 477.30 237.40 L 477.60 236.00 L 478.40 234.90 L 479.50 234.20 L 480.90 233.90 L 482.30 234.20 L 483.40 234.90 L 484.20 236.00 L 484.40 237.40 Z" fill="#224380" fill-rule="nonzero" group-id="6" id="Oval" node-id="67" stroke="none" target-height="7.100006" target-width="7.100006" target-x="477.3" target-y="233.9"></path><path d="M 472.00 262.20 L 457.10 262.40 L 456.20 263.30 L 456.00 264.00 L 456.60 265.30 L 457.80 265.80 L 472.70 265.70 L 473.60 264.70 L 473.80 264.00 L 473.30 262.80 L 472.00 262.20 Z" fill="#224380" fill-rule="nonzero" group-id="6" id="Path" node-id="68" stroke="none" target-height="3.5999756" target-width="17.799988" target-x="456" target-y="262.2"></path><path d="M 472.00 269.30 L 457.10 269.50 L 456.20 270.40 L 456.00 271.10 L 456.60 272.40 L 457.80 272.90 L 472.70 272.70 L 473.60 271.80 L 473.80 271.10 L 473.30 269.90 L 472.00 269.30 Z" fill="#baddfe" fill-rule="nonzero" group-id="6" id="Path" node-id="69" stroke="none" target-height="3.600006" target-width="17.799988" target-x="456" target-y="269.3"></path><g node-id="116"><path d="M 502.80 219.50 L 501.90 220.10 L 501.40 220.90 L 500.30 224.70 L 498.70 227.90 L 500.50 229.80 L 500.60 232.70 L 501.30 234.50 L 502.10 235.10 L 504.70 236.10 L 505.40 236.80 L 505.90 238.90 L 506.40 244.00 L 506.90 244.50 L 507.50 244.60 L 509.90 244.00 L 514.10 241.70 L 516.60 238.90 L 517.60 237.10 L 518.90 233.20 L 518.90 231.60 L 518.30 228.60 L 516.40 223.90 L 515.00 222.00 L 513.20 220.60 L 511.00 219.70 L 507.10 218.90 L 504.60 219.00 L 502.80 219.50 Z" fill="#f1b282" fill-rule="nonzero" group-id="6,11" id="Path" node-id="71" stroke="none" target-height="25.700012" target-width="20.200012" target-x="498.7" target-y="218.9"></path><path d="M 468.20 368.10 L 469.00 366.80 L 470.20 362.70 L 470.90 350.80 L 479.20 352.40 L 476.10 363.70 L 475.50 372.60 L 473.30 373.50 L 462.60 375.20 L 460.60 373.80 L 464.80 371.00 L 468.20 368.10 Z" fill="#f1b282" fill-rule="nonzero" group-id="6,11" id="Path" node-id="72" stroke="none" target-height="24.400024" target-width="18.600006" target-x="460.6" target-y="350.8"></path><path d="M 475.30 370.80 L 475.70 371.10 L 475.70 373.10 L 474.80 375.50 L 474.10 376.30 L 468.90 376.20 L 469.00 374.90 L 463.20 376.30 L 458.50 376.00 L 457.20 375.40 L 458.10 374.50 L 461.40 373.10 L 464.30 374.50 L 475.30 370.80 Z" fill="#0b224e" fill-rule="nonzero" group-id="6,11" id="Path" node-id="73" stroke="none" target-height="5.5" target-width="18.5" target-x="457.2" target-y="370.8"></path><path d="M 512.60 365.90 L 512.70 364.40 L 511.40 360.30 L 505.60 349.90 L 513.40 346.80 L 516.90 357.90 L 521.20 365.80 L 519.80 367.80 L 511.80 374.90 L 509.30 374.80 L 511.40 370.20 L 512.60 365.90 Z" fill="#f1b282" fill-rule="nonzero" group-id="6,11" id="Path" node-id="74" stroke="none" target-height="28.100006" target-width="15.600006" target-x="505.6" target-y="346.8"></path><path d="M 520.10 364.30 L 520.60 364.40 L 521.70 366.10 L 522.20 368.60 L 522.00 369.60 L 517.60 372.30 L 517.00 371.20 L 512.80 375.50 L 508.70 377.70 L 507.30 378.00 L 507.60 376.80 L 509.60 373.80 L 512.80 373.40 L 520.10 364.30 Z" fill="#0b224e" fill-rule="nonzero" group-id="6,11" id="Path" node-id="75" stroke="none" target-height="13.700012" target-width="14.900024" target-x="507.3" target-y="364.3"></path><path d="M 507.00 283.90 L 486.10 283.90 L 478.90 301.70 L 475.80 311.80 L 473.70 321.60 L 472.40 333.30 L 470.90 354.80 L 478.20 355.90 L 482.50 342.80 L 483.40 335.50 L 483.50 330.40 L 490.90 317.20 L 507.00 283.90 Z" fill="#0b224e" fill-rule="nonzero" group-id="6,11" id="Path" node-id="76" stroke="none" target-height="72" target-width="36.100006" target-x="470.9" target-y="283.9"></path><path d="M 503.30 323.00 L 504.80 315.90 L 507.90 306.20 L 509.30 299.10 L 509.50 294.70 L 509.30 291.70 L 508.90 289.20 L 507.00 283.90 L 486.10 283.90 L 485.70 297.60 L 486.60 311.20 L 487.80 318.70 L 489.60 326.40 L 490.60 328.90 L 492.40 332.30 L 497.10 339.50 L 508.00 354.10 L 515.20 352.60 L 508.40 332.00 L 505.30 325.90 L 503.30 323.00 Z" fill="#102b5e" fill-rule="nonzero" group-id="6,11" id="Path" node-id="77" stroke="none" target-height="70.20001" target-width="29.5" target-x="485.7" target-y="283.9"></path><path d="M 518.00 249.40 L 517.90 247.20 L 517.50 245.50 L 516.80 244.20 L 515.20 242.60 L 513.20 241.50 L 511.00 240.80 L 506.20 240.30 L 504.10 241.50 L 499.80 245.40 L 493.10 250.50 L 490.70 253.30 L 490.20 254.70 L 490.50 264.80 L 490.30 268.20 L 489.70 272.10 L 486.10 283.90 L 507.00 283.90 L 506.60 277.20 L 506.90 274.50 L 507.60 272.10 L 514.90 259.60 L 517.40 253.00 L 518.00 249.40 Z" fill="#ffcb01" fill-rule="nonzero" group-id="6,11" id="Path" node-id="78" stroke="none" target-height="43.59999" target-width="31.899994" target-x="486.1" target-y="240.3"></path><path d="M 510.30 253.40 L 509.60 257.40 L 507.40 263.40 L 503.90 269.20 L 499.70 273.70 L 494.00 277.60 L 487.00 280.60 L 489.40 273.00 L 505.30 262.70 L 510.30 253.40 Z" fill="#f0b701" fill-rule="nonzero" group-id="6,11" id="Path" node-id="79" stroke="none" target-height="27.200012" target-width="23.299988" target-x="487" target-y="253.4"></path><path d="M 505.30 262.70 L 501.20 267.40 L 495.00 273.20 L 492.80 274.60 L 486.90 277.40 L 477.30 280.70 L 464.80 282.90 L 460.10 282.70 L 458.80 282.20 L 457.80 281.40 L 457.20 280.50 L 457.40 279.80 L 463.40 280.00 L 466.70 279.40 L 466.70 279.10 L 465.20 277.00 L 465.30 276.20 L 466.90 276.30 L 469.60 277.60 L 471.00 277.60 L 476.40 276.10 L 480.50 274.10 L 484.70 271.50 L 489.00 268.40 L 492.70 265.00 L 497.00 259.90 L 498.70 256.70 L 505.30 262.70 Z" fill="#f1b282" fill-rule="nonzero" group-id="6,11" id="Path" node-id="80" stroke="none" target-height="26.199982" target-width="48.099976" target-x="457.2" target-y="256.7"></path><path d="M 502.30 220.50 L 500.50 220.00 L 499.60 219.30 L 499.00 218.30 L 498.70 216.70 L 499.00 215.20 L 499.80 213.80 L 501.10 212.50 L 504.50 210.50 L 508.90 209.50 L 513.30 209.90 L 515.40 210.60 L 517.30 211.80 L 518.90 213.50 L 520.80 216.50 L 527.40 232.00 L 529.20 234.60 L 533.00 238.30 L 533.90 240.00 L 534.30 242.00 L 534.20 244.00 L 533.80 246.00 L 531.70 250.10 L 528.80 253.40 L 527.00 254.70 L 525.20 255.40 L 523.40 255.70 L 520.60 255.40 L 517.90 254.60 L 515.50 253.20 L 513.40 251.40 L 511.70 249.30 L 510.70 247.00 L 510.30 243.70 L 513.10 234.50 L 513.70 230.40 L 513.40 229.20 L 512.40 228.40 L 510.40 228.70 L 509.70 228.50 L 509.20 228.00 L 507.00 223.30 L 505.90 221.90 L 503.90 220.70 L 502.30 220.50 Z" fill="#0b224e" fill-rule="nonzero" group-id="6,11" id="Path" node-id="81" stroke="none" target-height="46.199997" target-width="35.599976" target-x="498.7" target-y="209.5"></path></g></g><g node-id="112"><path d="M 159.50 74.00 L 176.10 92.30 L 176.30 93.60 L 175.60 94.30 L 174.60 94.20 L 157.60 75.70 L 157.30 74.80 L 157.70 74.00 L 158.60 73.60 L 159.50 74.00 Z" fill="#1277d7" fill-rule="nonzero" group-id="7" id="Path" node-id="83" stroke="none" target-height="20.700005" target-width="19" target-x="157.3" target-y="73.6"></path><path d="M 200.30 135.50 L 204.20 140.90 L 198.10 146.50 L 194.10 140.30 Z" fill="#f1b282" fill-rule="nonzero" group-id="7" id="Path" node-id="84" stroke="none" target-height="11" target-width="10.099991" target-x="194.1" target-y="135.5"></path><path d="M 162.80 137.90 L 157.10 144.70 L 151.20 140.10 L 157.50 133.90 Z" fill="#f1b282" fill-rule="nonzero" group-id="7" id="Path" node-id="85" stroke="none" target-height="10.800003" target-width="11.600006" target-x="151.2" target-y="133.9"></path><path d="M 185.70 109.90 L 163.10 139.10 L 156.90 133.70 L 169.70 109.10 L 173.80 102.10 L 176.70 97.90 L 177.90 97.00 L 179.00 96.70 L 180.00 96.80 L 182.00 98.20 L 183.00 99.40 L 184.20 101.60 L 185.10 104.20 L 185.60 107.10 L 185.70 109.90 Z" fill="#0b224e" fill-rule="nonzero" group-id="7" id="Path" node-id="86" stroke="none" target-height="42.40001" target-width="28.800003" target-x="156.9" target-y="96.7"></path><path d="M 226.90 100.60 L 225.30 98.50 L 221.30 96.20 L 218.20 95.10 L 211.80 93.50 L 204.50 92.20 L 191.40 92.60 L 184.00 93.80 L 180.70 94.80 L 177.70 96.10 L 175.40 97.80 L 174.20 99.10 L 173.50 100.60 L 173.10 102.30 L 173.70 105.90 L 176.20 112.20 L 178.40 116.50 L 183.60 125.20 L 194.30 141.00 L 200.50 137.20 L 195.90 123.00 L 192.80 115.50 L 189.40 108.80 L 199.40 110.40 L 206.20 110.90 L 215.50 111.10 L 220.70 110.60 L 224.00 109.20 L 226.00 107.40 L 226.80 105.80 L 227.20 104.30 L 226.90 100.60 Z" fill="#102b5e" fill-rule="nonzero" group-id="7" id="Path" node-id="87" stroke="none" target-height="48.800003" target-width="54.09999" target-x="173.1" target-y="92.2"></path><path d="M 229.90 99.40 L 228.60 94.30 L 227.70 86.90 L 228.80 72.00 L 228.20 63.90 L 227.30 60.00 L 226.10 57.00 L 223.30 52.70 L 220.20 50.00 L 217.80 48.80 L 214.30 48.00 L 211.00 49.50 L 208.40 51.30 L 204.60 55.20 L 202.30 59.20 L 201.30 62.10 L 200.80 66.20 L 201.80 77.70 L 201.50 89.50 L 201.90 91.20 L 202.60 92.50 L 203.80 93.50 L 205.80 94.50 L 211.20 95.80 L 215.70 97.50 L 217.80 98.70 L 221.70 101.70 L 225.80 103.70 L 228.60 104.00 L 229.90 103.00 L 230.30 101.10 L 229.90 99.40 Z" fill="#1b90fb" fill-rule="nonzero" group-id="7" id="Path" node-id="88" stroke="none" target-height="56" target-width="29.5" target-x="200.8" target-y="48"></path><path d="M 221.50 82.30 L 218.00 84.80 L 212.70 87.70 L 206.90 90.40 L 201.90 92.20 L 201.20 90.40 L 201.00 88.40 L 201.80 77.70 L 205.60 76.00 L 209.10 73.90 L 220.50 64.70 L 222.10 63.70 L 224.70 63.00 L 225.10 67.50 L 224.90 73.70 L 223.60 78.90 L 221.50 82.30 Z" fill="#1277d7" fill-rule="nonzero" group-id="7" id="Path" node-id="89" stroke="none" target-height="29.199997" target-width="24.100006" target-x="201" target-y="63"></path><path d="M 199.70 94.70 L 175.00 94.70 L 174.20 94.30 L 173.80 93.40 L 174.20 92.60 L 175.00 92.20 L 199.70 92.20 L 200.60 92.60 L 200.90 93.40 L 200.60 94.30 L 199.70 94.70 Z" fill="#1b90fb" fill-rule="nonzero" group-id="7" id="Path" node-id="90" stroke="none" target-height="2.5" target-width="27.09999" target-x="173.8" target-y="92.2"></path><path d="M 192.80 85.60 L 188.00 85.60 L 186.20 86.00 L 184.50 86.80 L 183.10 87.90 L 181.20 90.30 L 180.90 92.00 L 181.50 92.30 L 183.70 92.60 L 186.00 92.30 L 186.80 92.00 L 187.90 90.70 L 188.50 90.40 L 191.80 90.00 L 192.90 89.60 L 194.60 87.90 L 194.00 86.30 L 192.80 85.60 Z" fill="#f1b282" fill-rule="nonzero" group-id="7" id="Path" node-id="91" stroke="none" target-height="7" target-width="13.700012" target-x="180.9" target-y="85.6"></path><path d="M 213.60 62.30 L 213.20 68.70 L 212.30 71.10 L 210.00 74.20 L 207.90 76.10 L 202.70 79.50 L 197.40 82.20 L 191.60 84.50 L 194.90 90.30 L 209.90 85.10 L 216.20 82.40 L 220.00 80.10 L 221.00 78.60 L 222.80 74.30 L 224.30 67.30 L 224.70 63.90 L 224.40 61.10 L 223.60 58.60 L 222.40 56.50 L 219.90 54.10 L 217.80 53.60 L 216.80 53.80 L 215.00 55.70 L 214.40 57.10 L 213.60 62.30 Z" fill="#1b90fb" fill-rule="nonzero" group-id="7" id="Path" node-id="92" stroke="none" target-height="36.700005" target-width="33.09999" target-x="191.6" target-y="53.6"></path><path d="M 192.20 34.40 L 192.40 36.70 L 193.50 39.30 L 193.70 43.90 L 196.50 45.30 L 198.20 48.20 L 199.20 49.00 L 200.20 49.10 L 203.80 48.50 L 204.80 48.50 L 205.30 48.80 L 206.70 52.80 L 207.50 58.10 L 209.40 57.00 L 212.80 54.10 L 214.50 52.40 L 216.40 49.60 L 216.30 48.30 L 213.80 45.10 L 213.00 43.50 L 211.40 38.00 L 209.60 33.50 L 208.40 31.40 L 206.10 28.80 L 204.20 28.20 L 199.30 29.30 L 196.70 30.30 L 193.30 32.50 L 192.20 34.40 Z" fill="#f1b282" fill-rule="nonzero" group-id="7" id="Path" node-id="93" stroke="none" target-height="29.899998" target-width="24.199997" target-x="192.2" target-y="28.2"></path><path d="M 215.60 31.30 L 215.90 35.10 L 215.30 40.40 L 214.70 42.00 L 213.80 43.20 L 213.10 43.60 L 212.20 43.50 L 211.10 42.70 L 206.20 37.30 L 205.10 36.50 L 204.30 36.40 L 201.60 38.60 L 200.30 38.80 L 198.90 35.90 L 198.30 35.50 L 194.30 36.50 L 192.50 36.60 L 191.00 36.20 L 189.90 35.40 L 188.40 33.00 L 188.30 31.30 L 188.80 29.70 L 191.00 26.70 L 192.70 25.30 L 196.80 23.00 L 200.70 21.80 L 202.60 21.80 L 203.80 22.20 L 206.10 24.40 L 208.70 23.80 L 210.30 23.90 L 212.40 24.80 L 214.30 27.00 L 215.60 31.30 Z" fill="#0b224e" fill-rule="nonzero" group-id="7" id="Path" node-id="94" stroke="none" target-height="21.8" target-width="27.59999" target-x="188.3" target-y="21.8"></path><path d="M 206.50 51.90 L 205.30 48.80 L 204.80 48.50 L 201.10 49.00 L 204.90 48.10 L 207.00 47.10 L 207.30 49.50 L 206.50 51.90 Z" fill="#cd916a" fill-rule="nonzero" group-id="7" id="Path" node-id="95" stroke="none" target-height="4.800003" target-width="6.199997" target-x="201.1" target-y="47.1"></path><path d="M 154.70 133.50 L 154.90 135.10 L 156.10 136.40 L 159.30 139.00 L 161.70 140.60 L 162.80 141.00 L 163.40 140.80 L 164.00 139.90 L 164.90 137.50 L 166.70 135.90 L 166.70 134.80 L 166.10 134.00 L 162.80 132.30 L 159.10 128.70 L 158.70 128.60 L 158.20 129.00 L 157.20 131.00 L 155.10 132.60 L 154.70 133.50 Z" fill="#355aa2" fill-rule="nonzero" group-id="7" id="Path" node-id="96" stroke="none" target-height="12.399994" target-width="12" target-x="154.7" target-y="128.6"></path><path d="M 202.80 136.50 L 202.30 138.10 L 200.90 139.20 L 197.40 141.30 L 194.70 142.50 L 193.50 142.70 L 193.00 142.40 L 192.60 141.40 L 192.00 139.00 L 190.50 137.10 L 190.70 136.00 L 191.50 135.30 L 194.90 134.20 L 199.20 131.10 L 199.60 131.10 L 200.00 131.60 L 200.70 133.70 L 202.50 135.60 L 202.80 136.50 Z" fill="#355aa2" fill-rule="nonzero" group-id="7" id="Path" node-id="97" stroke="none" target-height="11.599991" target-width="12.300003" target-x="190.5" target-y="131.1"></path><path d="M 203.10 139.70 L 203.70 139.50 L 204.60 139.70 L 205.60 140.30 L 208.70 143.70 L 209.60 145.40 L 209.50 146.20 L 208.90 147.10 L 194.40 156.10 L 191.00 156.70 L 188.80 156.30 L 188.50 155.20 L 188.80 154.70 L 191.70 152.70 L 193.20 151.10 L 196.10 145.00 L 198.60 144.10 L 200.20 143.10 L 203.10 139.70 Z" fill="#0b224e" fill-rule="nonzero" group-id="7" id="Path" node-id="98" stroke="none" target-height="17.199997" target-width="21.100006" target-x="188.5" target-y="139.5"></path><path d="M 160.00 141.80 L 160.50 142.20 L 160.70 143.10 L 160.60 144.30 L 159.00 148.60 L 157.90 150.20 L 157.10 150.50 L 156.00 150.30 L 141.50 141.40 L 139.30 138.70 L 138.70 136.50 L 139.60 135.80 L 140.20 135.90 L 143.20 137.50 L 145.40 138.20 L 152.10 137.90 L 154.10 139.80 L 155.70 140.80 L 160.00 141.80 Z" fill="#0b224e" fill-rule="nonzero" group-id="7" id="Path" node-id="99" stroke="none" target-height="14.699997" target-width="22" target-x="138.7" target-y="135.8"></path></g></svg>