<?xml version="1.0" standalone="no"?><!DOCTYPE svg PUBLIC "-//W3C//DTD SVG 1.1//EN" "http://www.w3.org/Graphics/SVG/1.1/DTD/svg11.dtd"><svg t="1730613108542" class="icon" viewBox="0 0 1024 1024" version="1.1" xmlns="http://www.w3.org/2000/svg" p-id="1703" xmlns:xlink="http://www.w3.org/1999/xlink" width="200" height="200"><path d="M546.315378 66.395022c5.296356 21.105778 8.112356 43.201422 8.112355 65.951289 0 75.872711-31.277511 144.4352-81.635555 193.513245 50.761956-19.825778 106.001067-30.72 163.7888-30.72 121.742222 0 232.197689 48.315733 313.252978 126.805333-39.446756-192.768-202.996622-340.3264-403.518578-355.549867zM102.661689 332.379022C78.506667 387.350756 65.092267 448.108089 65.092267 512c0 122.020978 48.907378 232.618667 128.182044 313.264356-4.630756-25.895822-7.048533-52.559644-7.048533-79.786667 0-142.916267 66.577067-270.279111 170.404978-352.779378-23.034311 6.388622-47.3088 9.807644-72.379734 9.807645-69.905067 0.005689-133.620622-26.550044-181.589333-70.126934z" fill="#24ce9e" p-id="1704"></path><path d="M512 958.907733c246.818133 0 446.907733-200.083911 446.907733-446.902044 0-30.850844-3.1232-60.967822-9.079466-90.055111-81.055289-78.495289-191.510756-126.805333-313.252978-126.805334-57.782044 0-113.026844 10.888533-163.7888 30.72 50.363733-49.072356 81.635556-117.640533 81.635555-193.513244 0-22.749867-2.816-44.839822-8.112355-65.951289a453.639396 453.639396 0 0 0-34.315378-1.297067c-182.926222 0-340.178489 109.903644-409.338311 267.286756 47.9744 43.576889 111.684267 70.132622 181.595022 70.132622 25.070933 0 49.345422-3.419022 72.379734-9.807644-103.827911 82.500267-170.404978 209.863111-170.404978 352.779378 0 27.227022 2.417778 53.890844 7.048533 79.786666 81.083733 82.466133 193.928533 133.626311 318.725689 133.626311z" fill="#56d8b0" p-id="1705"></path><path d="M261.063111 201.5232l15.746845-53.845333 15.746844 53.845333 53.845333 15.746844-53.845333 15.746845-15.746844 53.845333-15.746845-53.845333-53.845333-15.746845z" fill="#A2E9FC" p-id="1706"></path><path d="M682.012444 772.278044l19.882667-67.987911 19.882667 67.987911 67.987911 19.882667-67.987911 19.882667-19.882667 67.987911-19.882667-67.987911-67.987911-19.882667zM322.349511 334.307556l9.739378-33.297067 9.733689 33.297067 33.297066 9.733688-33.297066 9.739378-9.733689 33.291378-9.739378-33.291378-33.291378-9.739378z" fill="#A2E9FC" p-id="1707"></path><path d="M323.390578 494.404267h85.333333c37.643378 0 68.266667-30.623289 68.266667-68.266667v-85.333333c0-37.643378-30.623289-68.266667-68.266667-68.266667h-85.333333c-37.643378 0-68.266667 30.623289-68.266667 68.266667v85.333333c0 37.643378 30.623289 68.266667 68.266667 68.266667zM411.568356 545.604267h-91.022223c-37.643378 0-68.266667 30.623289-68.266666 68.266666v91.022223c0 37.643378 30.623289 68.266667 68.266666 68.266666h91.022223c37.643378 0 68.266667-30.623289 68.266666-68.266666v-91.022223c0-37.643378-30.623289-68.266667-68.266666-68.266666zM684.635022 545.604267h-91.022222c-37.643378 0-68.266667 30.623289-68.266667 68.266666v91.022223c0 37.643378 30.623289 68.266667 68.266667 68.266666h91.022222c37.643378 0 68.266667-30.623289 68.266667-68.266666v-91.022223c0-37.643378-30.623289-68.266667-68.266667-68.266666zM590.853689 496.105244c12.896711 12.896711 30.037333 19.996444 48.270222 19.996445s35.3792-7.099733 48.270222-19.996445l64.364089-64.364088c26.618311-26.618311 26.618311-69.927822 0-96.546134l-64.364089-64.364089c-12.896711-12.896711-30.037333-19.996444-48.270222-19.996444s-35.3792 7.099733-48.270222 19.996444L526.4896 335.200711c-26.618311 26.618311-26.618311 69.927822 0 96.546133l64.364089 64.3584z" fill="#FFFFFF" p-id="1708"></path></svg>