<?xml version="1.0" standalone="no"?><!DOCTYPE svg PUBLIC "-//W3C//DTD SVG 1.1//EN" "http://www.w3.org/Graphics/SVG/1.1/DTD/svg11.dtd"><svg t="1730613063028" class="icon" viewBox="0 0 1024 1024" version="1.1" xmlns="http://www.w3.org/2000/svg" p-id="1372" xmlns:xlink="http://www.w3.org/1999/xlink" width="200" height="200"><path d="M546.315378 66.395022c5.296356 21.105778 8.112356 43.201422 8.112355 65.951289 0 75.872711-31.277511 144.4352-81.635555 193.513245 50.761956-19.825778 106.001067-30.72 163.7888-30.72 121.742222 0 232.197689 48.315733 313.252978 126.805333-39.446756-192.768-202.996622-340.3264-403.518578-355.549867zM102.661689 332.379022C78.506667 387.350756 65.092267 448.108089 65.092267 512c0 122.020978 48.907378 232.618667 128.182044 313.264356-4.630756-25.895822-7.048533-52.559644-7.048533-79.786667 0-142.916267 66.577067-270.279111 170.404978-352.779378-23.034311 6.388622-47.3088 9.807644-72.379734 9.807645-69.905067 0.005689-133.620622-26.550044-181.589333-70.126934z" fill="#24ce9e" p-id="1373"></path><path d="M512 958.907733c246.818133 0 446.907733-200.083911 446.907733-446.902044 0-30.850844-3.1232-60.967822-9.079466-90.055111-81.055289-78.495289-191.510756-126.805333-313.252978-126.805334-57.782044 0-113.026844 10.888533-163.7888 30.72 50.363733-49.072356 81.635556-117.640533 81.635555-193.513244 0-22.749867-2.816-44.839822-8.112355-65.951289a453.639396 453.639396 0 0 0-34.315378-1.297067c-182.926222 0-340.178489 109.903644-409.338311 267.286756 47.9744 43.576889 111.684267 70.132622 181.595022 70.132622 25.070933 0 49.345422-3.419022 72.379734-9.807644-103.827911 82.500267-170.404978 209.863111-170.404978 352.779378 0 27.227022 2.417778 53.890844 7.048533 79.786666 81.083733 82.466133 193.928533 133.626311 318.725689 133.626311z" fill="#56d8b0" p-id="1374"></path><path d="M261.063111 201.5232l15.746845-53.845333 15.746844 53.845333 53.845333 15.746844-53.845333 15.746845-15.746844 53.845333-15.746845-53.845333-53.845333-15.746845z" fill="#A3EFA3" p-id="1375"></path><path d="M682.012444 772.278044l19.882667-67.987911 19.882667 67.987911 67.987911 19.882667-67.987911 19.882667-19.882667 67.987911-19.882667-67.987911-67.987911-19.882667zM322.349511 334.307556l9.739378-33.297067 9.733689 33.297067 33.297066 9.733688-33.297066 9.739378-9.733689 33.291378-9.739378-33.291378-33.291378-9.739378z" fill="#A3EFA3" p-id="1376"></path><path d="M680.135111 242.249956l-224.0512 14.159644c-3.2256 0.2048-6.047289 1.7408-7.981511 4.033422-0.256 0.216178-0.512 0.438044-0.750933 0.682667L222.845156 485.632c-26.618311 26.618311-26.618311 69.927822 0 96.546133l179.723377 179.723378c26.618311 26.618311 69.927822 26.618311 96.546134 0L725.122844 535.893333c0.256-0.256 0.494933-0.529067 0.728178-0.807822 0.079644-0.096711 0.1536-0.199111 0.233245-0.301511 0.142222-0.182044 0.278756-0.364089 0.4096-0.557511 0.085333-0.125156 0.164978-0.256 0.244622-0.381156 0.108089-0.176356 0.216178-0.352711 0.312889-0.529066 0.073956-0.136533 0.147911-0.278756 0.216178-0.420978 0.091022-0.176356 0.170667-0.3584 0.250311-0.540445 0.062578-0.147911 0.125156-0.290133 0.176355-0.443733 0.068267-0.182044 0.136533-0.369778 0.193422-0.557511 0.0512-0.1536 0.096711-0.3072 0.142223-0.4608 0.0512-0.187733 0.096711-0.375467 0.136533-0.5632 0.034133-0.164978 0.073956-0.329956 0.1024-0.494933 0.034133-0.182044 0.056889-0.364089 0.079644-0.546134 0.022756-0.176356 0.045511-0.352711 0.056889-0.529066 0.005689-0.062578 0.017067-0.119467 0.022756-0.182045l14.148267-223.874844c1.063822-16.856178-5.1712-33.376711-17.117867-45.323378a58.844729 58.844729 0 0 0-45.323378-17.129244z m-60.507022 223.4368c-27.773156 27.773156-72.795022 27.773156-100.568178 0-27.773156-27.773156-27.773156-72.795022 0-100.568178 27.773156-27.773156 72.795022-27.773156 100.568178 0 27.773156 27.767467 27.773156 72.795022 0 100.568178z" fill="#FFFFFF" p-id="1377"></path></svg>