<?xml version="1.0" standalone="no"?><!DOCTYPE svg PUBLIC "-//W3C//DTD SVG 1.1//EN" "http://www.w3.org/Graphics/SVG/1.1/DTD/svg11.dtd"><svg t="1715699694685" class="icon" viewBox="0 0 1024 1024" version="1.1" xmlns="http://www.w3.org/2000/svg" p-id="875" xmlns:xlink="http://www.w3.org/1999/xlink" width="200" height="200"><path d="M511.236218 1.533699C229.035519 1.533699 0.003067 230.566151 0.003067 512.76685s229.032451 511.23315 511.233151 511.23315 511.23315-229.032451 511.23315-511.23315S793.436917 1.533699 511.236218 1.533699z m195.291063 743.333001c0 13.292062-14.314528 24.539191-32.718922 24.539191H348.664076c-17.89316 0-32.718922-10.735896-32.718922-24.539191v-24.539191h390.582127v24.539191z m48.567149-60.836745H267.378005v-42.432351c0-37.32002 27.095357-67.482776 60.836745-67.482776h135.476785V504.075886c-47.03345-18.915627-80.263605-64.92661-80.263605-119.117324 0-71.061408 57.258113-128.319521 128.319521-128.319521 71.061408 0 128.319521 57.258113 128.319521 128.319521 0 53.679481-33.230155 99.690464-80.263605 119.117324v70.038942h134.454318c33.741388 0 60.836745 30.162756 60.836745 67.482776v42.432351z" fill="#51c4a4" p-id="876"></path></svg>