<?xml version="1.0" standalone="no"?><!DOCTYPE svg PUBLIC "-//W3C//DTD SVG 1.1//EN" "http://www.w3.org/Graphics/SVG/1.1/DTD/svg11.dtd"><svg t="1716195425423" class="icon" viewBox="0 0 1024 1024" version="1.1" xmlns="http://www.w3.org/2000/svg" p-id="1813" xmlns:xlink="http://www.w3.org/1999/xlink" width="200" height="200"><path d="M137.5232 629.0944m26.7776 0l160.3072 0q26.7776 0 26.7776 26.7776l0 230.1952q0 26.7776-26.7776 26.7776l-160.3072 0q-26.7776 0-26.7776-26.7776l0-230.1952q0-26.7776 26.7776-26.7776Z" fill="#3A9CED" p-id="1814"></path><path d="M411.0848 482.7136m26.7776 0l160.3072 0q26.7776 0 26.7776 26.7776l0 376.576q0 26.7776-26.7776 26.7776l-160.3072 0q-26.7776 0-26.7776-26.7776l0-376.576q0-26.7776 26.7776-26.7776Z" fill="#2595E8" p-id="1815"></path><path d="M684.6976 276.224m26.7776 0l160.3072 0q26.7776 0 26.7776 26.7776l0 583.0656q0 26.7776-26.7776 26.7776l-160.3072 0q-26.7776 0-26.7776-26.7776l0-583.0656q0-26.7776 26.7776-26.7776Z" fill="#2595E8" p-id="1816"></path><path d="M380.928 114.8416h234.496a10.8032 10.8032 0 0 1 10.8544 10.8032V368.64a10.8544 10.8544 0 0 1-18.6368 7.5264l-63.1296-65.536a10.8544 10.8544 0 0 0-13.6192-1.5872l-325.8368 207.5136a10.8544 10.8544 0 0 1-14.5408-15.36l231.0144-310.6304a10.8032 10.8032 0 0 0-1.3824-14.4384L373.76 133.632a10.8032 10.8032 0 0 1 7.168-18.7904z" fill="#59ADF8" p-id="1817"></path><path d="M587.4176 482.7136h-138.752a37.5808 37.5808 0 0 0-37.5808 37.5808V875.52a37.5808 37.5808 0 0 0 37.5808 37.5296h50.6368a593.2544 593.2544 0 0 0 125.6448-58.2144v-334.336a37.5808 37.5808 0 0 0-37.5296-37.7856zM898.56 461.1072V313.7536a37.5808 37.5808 0 0 0-37.5808-37.2736h-138.7008a37.5808 37.5808 0 0 0-37.5808 37.5296v498.5344a596.6336 596.6336 0 0 0 213.8624-351.4368z" fill="#3A9CED" p-id="1818"></path><path d="M729.1904 276.48h-6.912a37.5808 37.5808 0 0 0-37.5808 37.5296v84.0704A592.0768 592.0768 0 0 0 729.1904 276.48zM619.52 501.2992a37.3248 37.3248 0 0 0-32.2048-18.5856H448.6656a37.5808 37.5808 0 0 0-37.5808 37.5808v150.0672A599.04 599.04 0 0 0 619.52 501.2992zM313.8048 629.0944h-138.752a37.5296 37.5296 0 0 0-37.5296 37.5296v63.7952c3.9424 0 7.8336 0.3072 11.8272 0.3072a595.7632 595.7632 0 0 0 201.984-35.1232v-28.9792a37.5296 37.5296 0 0 0-37.5296-37.5296z" fill="#59ADF8" p-id="1819"></path><path d="M203.5712 483.4816a599.04 599.04 0 0 0 360.8064-368.64H380.928A10.8032 10.8032 0 0 0 373.76 133.632l46.5408 42.496a10.8032 10.8032 0 0 1 1.3824 14.4384z" fill="#6BC2FC" p-id="1820"></path></svg>