<?xml version="1.0" standalone="no"?><!DOCTYPE svg PUBLIC "-//W3C//DTD SVG 1.1//EN" "http://www.w3.org/Graphics/SVG/1.1/DTD/svg11.dtd"><svg t="1715907686291" class="icon" viewBox="0 0 1024 1024" version="1.1" xmlns="http://www.w3.org/2000/svg" p-id="12760" xmlns:xlink="http://www.w3.org/1999/xlink" width="200" height="200"><path d="M279.850667 490.666667a32 32 0 0 1-2.474667 45.184L161.109333 640l116.266667 104.192a32 32 0 1 1-42.752 47.616l-117.546667-105.386667a61.781333 61.781333 0 0 1 0-92.885333l117.546667-105.386667a32 32 0 0 1 45.226667 2.474667zM96 256A32 32 0 0 1 128 224h768a32 32 0 0 1 0 64H128A32 32 0 0 1 96 256zM394.666667 512a32 32 0 0 1 32-32h469.333333a32 32 0 0 1 0 64H426.666667a32 32 0 0 1-32-32zM394.666667 768a32 32 0 0 1 32-32h469.333333a32 32 0 0 1 0 64H426.666667a32 32 0 0 1-32-32z" p-id="12761"></path></svg>