<?xml version="1.0" standalone="no"?><!DOCTYPE svg PUBLIC "-//W3C//DTD SVG 1.1//EN" "http://www.w3.org/Graphics/SVG/1.1/DTD/svg11.dtd"><svg t="1715699745812" class="icon" viewBox="0 0 1024 1024" version="1.1" xmlns="http://www.w3.org/2000/svg" p-id="1190" xmlns:xlink="http://www.w3.org/1999/xlink" width="200" height="200"><path d="M512 0a512 512 0 1 1 0 1024A512 512 0 0 1 512 0z m0 256a192 192 0 0 0-189.376 160H288A32 32 0 0 0 256 448v288a32 32 0 0 0 32 32h448a32 32 0 0 0 32-32V448a32 32 0 0 0-32-32h-34.624A192 192 0 0 0 512 256z m0 288a32 32 0 0 1 32 32v64l-0.512 5.76A32 32 0 0 1 480 640V576l0.512-5.76A32 32 0 0 1 512 544zM512 320a128 128 0 0 1 123.968 96H388.032A128 128 0 0 1 512 320z" fill="#51c4a4" p-id="1191"></path></svg>