<?xml version="1.0" standalone="no"?><!DOCTYPE svg PUBLIC "-//W3C//DTD SVG 1.1//EN" "http://www.w3.org/Graphics/SVG/1.1/DTD/svg11.dtd"><svg t="1715699734141" class="icon" viewBox="0 0 1024 1024" version="1.1" xmlns="http://www.w3.org/2000/svg" p-id="1032" xmlns:xlink="http://www.w3.org/1999/xlink" width="200" height="200"><path d="M512 512m-512 0a512 512 0 1 0 1024 0 512 512 0 1 0-1024 0Z" fill="#51c4a4" p-id="1033"></path><path d="M726.231579 330.374737a36.378947 36.378947 0 0 0-24.252632-8.892632h-2.425263c-0.404211 0-6.197895 0.404211-14.955789 0.404211a330.832842 330.832842 0 0 1-71.006316-7.27579c-35.031579-8.218947-75.722105-45.675789-87.578947-53.086315a37.591579 37.591579 0 0 0-39.343158 0 225.818947 225.818947 0 0 1-85.827369 53.086315 333.325474 333.325474 0 0 1-71.275789 7.27579c-8.892632 0-14.416842-0.269474-15.090527-0.404211h-2.425263a36.486737 36.486737 0 0 0-24.117894 9.027369 31.892211 31.892211 0 0 0-11.317895 24.117894v82.728421c0 306.256842 214.231579 345.6 223.393684 347.216843a48.101053 48.101053 0 0 0 6.197895 0.538947 46.093474 46.093474 0 0 0 6.197895-0.538947c9.296842-1.616842 225.010526-40.96 225.010526-347.216843v-82.728421a32.444632 32.444632 0 0 0-11.183158-24.117894m-79.090526 118.433684L498.391579 587.856842a19.927579 19.927579 0 0 1-3.368421 4.176842 24.252632 24.252632 0 0 1-31.663158 0 16.410947 16.410947 0 0 1-3.368421-4.176842l-79.629474-74.374737a19.442526 19.442526 0 0 1-6.197894-14.282105 19.671579 19.671579 0 0 1 6.197894-14.282105 23.053474 23.053474 0 0 1 30.72 0l67.907369 63.730526 137.296842-128.269474a22.595368 22.595368 0 0 1 30.585263 0 19.011368 19.011368 0 0 1 6.332632 14.147369 19.550316 19.550316 0 0 1-6.063158 14.282105" fill="#FFFFFF" p-id="1034"></path></svg>